<svg width="206" height="56" viewBox="0 0 206 56" fill="none" xmlns="http://www.w3.org/2000/svg">
<path d="M108.668 30.4535V50.7034H105V30.4535H108.668Z" fill="black"/>
<path d="M112.482 50.7034V35.516H115.904V38.0966H116.082C116.398 37.2265 116.922 36.5476 117.654 36.0598C118.385 35.5654 119.259 35.3182 120.274 35.3182C121.302 35.3182 122.169 35.5687 122.874 36.0697C123.586 36.564 124.087 37.2397 124.377 38.0966H124.536C124.872 37.2529 125.439 36.5805 126.236 36.0796C127.04 35.572 127.993 35.3182 129.094 35.3182C130.491 35.3182 131.632 35.7599 132.515 36.6431C133.398 37.5264 133.84 38.8151 133.84 40.5092V50.7034H130.251V41.0629C130.251 40.1203 130 39.4315 129.499 38.9964C128.998 38.5548 128.385 38.3339 127.66 38.3339C126.796 38.3339 126.121 38.6042 125.633 39.1447C125.152 39.6787 124.911 40.3741 124.911 41.231V50.7034H121.401V40.9146C121.401 40.1302 121.164 39.504 120.689 39.036C120.221 38.5679 119.608 38.3339 118.85 38.3339C118.336 38.3339 117.868 38.4658 117.446 38.7294C117.024 38.9865 116.688 39.3524 116.438 39.827C116.187 40.295 116.062 40.8421 116.062 41.4683V50.7034H112.482Z" fill="black"/>
<path d="M144.096 51C142.613 51 141.327 50.6737 140.24 50.0211C139.152 49.3685 138.308 48.4556 137.708 47.2822C137.115 46.1089 136.818 44.7378 136.818 43.169C136.818 41.6001 137.115 40.2258 137.708 39.0458C138.308 37.8659 139.152 36.9497 140.24 36.2971C141.327 35.6445 142.613 35.3182 144.096 35.3182C145.579 35.3182 146.864 35.6445 147.952 36.2971C149.04 36.9497 149.88 37.8659 150.473 39.0458C151.073 40.2258 151.373 41.6001 151.373 43.169C151.373 44.7378 151.073 46.1089 150.473 47.2822C149.88 48.4556 149.04 49.3685 147.952 50.0211C146.864 50.6737 145.579 51 144.096 51ZM144.116 48.1326C144.92 48.1326 145.592 47.9118 146.133 47.4701C146.673 47.0219 147.075 46.422 147.339 45.6706C147.609 44.9191 147.744 44.0819 147.744 43.1591C147.744 42.2297 147.609 41.3892 147.339 40.6378C147.075 39.8797 146.673 39.2766 146.133 38.8283C145.592 38.3801 144.92 38.156 144.116 38.156C143.292 38.156 142.606 38.3801 142.059 38.8283C141.518 39.2766 141.113 39.8797 140.843 40.6378C140.579 41.3892 140.447 42.2297 140.447 43.1591C140.447 44.0819 140.579 44.9191 140.843 45.6706C141.113 46.422 141.518 47.0219 142.059 47.4701C142.606 47.9118 143.292 48.1326 144.116 48.1326ZM142.721 33.5187L144.936 29H148.436L145.401 33.5187H142.721Z" fill="black"/>
<path d="M167.46 35.516L162.052 50.7034H158.097L152.688 35.516H156.505L159.995 46.7978H160.153L163.653 35.516H167.46Z" fill="black"/>
<path d="M176.144 51C174.621 51 173.306 50.6836 172.199 50.0508C171.098 49.4114 170.251 48.5083 169.658 47.3416C169.064 46.1682 168.768 44.7873 168.768 43.1987C168.768 41.6364 169.064 40.2653 169.658 39.0854C170.258 37.8989 171.095 36.976 172.169 36.3169C173.244 35.6511 174.506 35.3182 175.956 35.3182C176.892 35.3182 177.776 35.4698 178.606 35.773C179.443 36.0697 180.182 36.5311 180.821 37.1573C181.467 37.7835 181.974 38.5811 182.344 39.5501C182.713 40.5125 182.897 41.6595 182.897 42.991V44.0885H170.449V41.676H179.466C179.46 40.9904 179.311 40.3807 179.021 39.8467C178.731 39.3062 178.326 38.881 177.805 38.5712C177.291 38.2614 176.691 38.1065 176.006 38.1065C175.274 38.1065 174.631 38.2845 174.078 38.6404C173.524 38.9898 173.092 39.4512 172.782 40.0247C172.479 40.5916 172.324 41.2145 172.318 41.8935V43.9995C172.318 44.8828 172.479 45.6409 172.802 46.2737C173.125 46.8999 173.577 47.3811 174.157 47.7173C174.737 48.0469 175.416 48.2117 176.193 48.2117C176.714 48.2117 177.186 48.1392 177.607 47.9942C178.029 47.8425 178.395 47.6217 178.705 47.3317C179.015 47.0416 179.249 46.6824 179.407 46.2539L182.749 46.6297C182.538 47.513 182.136 48.2842 181.543 48.9434C180.956 49.596 180.205 50.1035 179.288 50.4661C178.372 50.822 177.324 51 176.144 51Z" fill="black"/>
<path d="M185.925 50.7034V35.516H189.505V50.7034H185.925ZM187.725 33.3604C187.158 33.3604 186.67 33.1726 186.262 32.7969C185.853 32.4145 185.649 31.9564 185.649 31.4225C185.649 30.8819 185.853 30.4238 186.262 30.0481C186.67 29.6658 187.158 29.4746 187.725 29.4746C188.298 29.4746 188.786 29.6658 189.188 30.0481C189.597 30.4238 189.801 30.8819 189.801 31.4225C189.801 31.9564 189.597 32.4145 189.188 32.7969C188.786 33.1726 188.298 33.3604 187.725 33.3604Z" fill="black"/>
<path d="M205.189 39.5303L201.926 39.8863C201.834 39.5567 201.672 39.2469 201.442 38.9569C201.217 38.6668 200.914 38.4328 200.532 38.2548C200.15 38.0769 199.682 37.9879 199.128 37.9879C198.383 37.9879 197.757 38.1494 197.249 38.4724C196.748 38.7954 196.501 39.2139 196.508 39.7281C196.501 40.1697 196.663 40.529 196.992 40.8058C197.328 41.0827 197.882 41.3101 198.653 41.4881L201.244 42.0418C202.681 42.3516 203.749 42.8427 204.447 43.5151C205.153 44.1874 205.509 45.0674 205.515 46.1551C205.509 47.1109 205.229 47.9546 204.675 48.6863C204.128 49.4114 203.366 49.9783 202.391 50.387C201.415 50.7957 200.295 51 199.029 51C197.17 51 195.674 50.6111 194.54 49.8333C193.406 49.0488 192.731 47.9579 192.513 46.5604L196.003 46.2243C196.162 46.9098 196.498 47.4273 197.012 47.7766C197.526 48.126 198.195 48.3007 199.019 48.3007C199.869 48.3007 200.552 48.126 201.066 47.7766C201.587 47.4273 201.847 46.9955 201.847 46.4813C201.847 46.0463 201.679 45.687 201.343 45.4036C201.013 45.1201 200.499 44.9026 199.8 44.751L197.21 44.2072C195.753 43.904 194.675 43.3931 193.976 42.6746C193.278 41.9495 192.932 41.0333 192.938 39.9258C192.932 38.9898 193.185 38.179 193.7 37.4935C194.22 36.8013 194.942 36.2674 195.865 35.8917C196.794 35.5094 197.866 35.3182 199.078 35.3182C200.858 35.3182 202.259 35.6972 203.281 36.4553C204.309 37.2133 204.945 38.2384 205.189 39.5303Z" fill="black"/>
<path fill-rule="evenodd" clip-rule="evenodd" d="M81.433 55.7993V24.9245L85.9144 27.551L85.8198 51.6064L97.9313 51.5113L97.9912 55.7751L81.433 55.7993Z" fill="black"/>
<path fill-rule="evenodd" clip-rule="evenodd" d="M73.5529 15.3594L73.5647 56.0015L69.2254 55.9894L69.2375 41.8029L61.5719 41.7908L61.584 55.9894H57.0422V0.857422L61.5961 3.87698L61.6017 37.5041L69.1898 37.479L69.1838 7.87174L98 24.5405L97.9612 47.3892L93.4073 47.4016L93.4014 27.0685L73.5529 15.3594Z" fill="black"/>
<path d="M0 50.793V29H8.34264C9.91753 29 11.2264 29.2483 12.2692 29.7449C13.3191 30.2344 14.103 30.9048 14.6209 31.7561C15.1459 32.6073 15.4084 33.5721 15.4084 34.6504C15.4084 35.5372 15.2381 36.2963 14.8976 36.9276C14.5571 37.5519 14.0995 38.0591 13.5249 38.4493C12.9503 38.8395 12.3082 39.1197 11.5988 39.29V39.5028C12.3721 39.5454 13.1134 39.783 13.8228 40.2157C14.5393 40.6414 15.1246 41.2444 15.5786 42.0247C16.0326 42.8051 16.2596 43.7486 16.2596 44.8553C16.2596 45.9832 15.9865 46.9977 15.4403 47.8986C14.894 48.7925 14.0711 49.4984 12.9715 50.0162C11.872 50.5341 10.4886 50.793 8.8215 50.793H0ZM3.94786 47.4943H8.19367C9.62667 47.4943 10.6589 47.2212 11.2902 46.6749C11.9287 46.1216 12.2479 45.4122 12.2479 44.5467C12.2479 43.9011 12.0883 43.3194 11.7691 42.8015C11.4499 42.2766 10.9958 41.8651 10.407 41.5672C9.81821 41.2621 9.1159 41.1096 8.30008 41.1096H3.94786V47.4943ZM3.94786 38.2684H7.85315C8.53419 38.2684 9.14782 38.1443 9.69407 37.896C10.2403 37.6406 10.6695 37.2823 10.9816 36.8212C11.3009 36.353 11.4605 35.7997 11.4605 35.1612C11.4605 34.317 11.1625 33.6218 10.5666 33.0756C9.97783 32.5293 9.10171 32.2562 7.93828 32.2562H3.94786V38.2684Z" fill="black"/>
<path d="M24.2272 51.1229C23.1915 51.1229 22.2586 50.9385 21.4286 50.5696C20.6057 50.1936 19.953 49.6402 19.4706 48.9095C18.9953 48.1789 18.7576 47.2779 18.7576 46.2067C18.7576 45.2845 18.9279 44.5219 19.2684 43.9189C19.6089 43.3159 20.0736 42.8335 20.6624 42.4717C21.2512 42.1099 21.9145 41.8367 22.6523 41.6523C23.3972 41.4608 24.1669 41.3224 24.9614 41.2373C25.9191 41.138 26.6959 41.0493 27.2918 40.9713C27.8877 40.8861 28.3205 40.7584 28.59 40.5882C28.8667 40.4108 29.0051 40.1377 29.0051 39.7688V39.705C29.0051 38.9033 28.7674 38.2826 28.2921 37.8428C27.8168 37.4029 27.1322 37.183 26.2384 37.183C25.2948 37.183 24.5464 37.3888 23.9931 37.8002C23.4468 38.2117 23.0779 38.6976 22.8864 39.258L19.2897 38.7473C19.5735 37.7541 20.0417 36.9241 20.6943 36.2572C21.347 35.5833 22.1451 35.0796 23.0886 34.7462C24.0321 34.4057 25.0749 34.2354 26.2171 34.2354C27.0045 34.2354 27.7884 34.3277 28.5688 34.5121C29.3491 34.6966 30.0621 35.0016 30.7076 35.4272C31.3532 35.8458 31.8711 36.4169 32.2612 37.1405C32.6585 37.8641 32.8571 38.7686 32.8571 39.854V50.793H29.154V48.5478H29.0263C28.7922 49.0018 28.4624 49.4274 28.0367 49.8247C27.6182 50.2149 27.0897 50.5305 26.4512 50.7717C25.8198 51.0059 25.0785 51.1229 24.2272 51.1229ZM25.2275 48.2924C26.0007 48.2924 26.6711 48.1398 27.2386 47.8348C27.8062 47.5227 28.2424 47.1112 28.5475 46.6004C28.8596 46.0897 29.0157 45.5328 29.0157 44.9298V43.0037C28.8951 43.103 28.6894 43.1953 28.3985 43.2804C28.1147 43.3655 27.7955 43.44 27.4408 43.5039C27.0861 43.5677 26.7349 43.6245 26.3873 43.6741C26.0397 43.7238 25.7382 43.7663 25.4828 43.8018C24.9082 43.8798 24.3939 44.0075 23.9399 44.1849C23.4859 44.3622 23.1276 44.6105 22.8651 44.9298C22.6026 45.2419 22.4714 45.6463 22.4714 46.1429C22.4714 46.8523 22.7303 47.3879 23.2482 47.7497C23.7661 48.1115 24.4258 48.2924 25.2275 48.2924Z" fill="black"/>
<path d="M49.6488 38.7686L46.1373 39.1516C46.038 38.7969 45.8641 38.4635 45.6159 38.1514C45.3747 37.8392 45.0483 37.5874 44.6369 37.3959C44.2254 37.2043 43.7217 37.1085 43.1258 37.1085C42.3242 37.1085 41.6503 37.2823 41.104 37.63C40.5649 37.9776 40.2988 38.428 40.3059 38.9814C40.2988 39.4567 40.4726 39.8433 40.8273 40.1413C41.1891 40.4392 41.785 40.684 42.6151 40.8755L45.403 41.4714C46.9495 41.8048 48.0988 42.3333 48.8508 43.0569C49.6098 43.7805 49.9929 44.7276 50 45.8981C49.9929 46.9268 49.6914 47.8348 49.0955 48.6222C48.5067 49.4026 47.6873 50.0127 46.6374 50.4525C45.5875 50.8923 44.3815 51.1123 43.0194 51.1123C41.0189 51.1123 39.4085 50.6937 38.1883 49.8566C36.9682 49.0124 36.241 47.8383 36.0069 46.3344L39.7632 45.9726C39.9335 46.7104 40.2953 47.2673 40.8486 47.6433C41.402 48.0192 42.122 48.2072 43.0088 48.2072C43.9239 48.2072 44.6582 48.0192 45.2115 47.6433C45.7719 47.2673 46.0521 46.8026 46.0521 46.2493C46.0521 45.7811 45.8712 45.3944 45.5094 45.0894C45.1547 44.7843 44.6014 44.5502 43.8494 44.3871L41.0615 43.8018C39.4937 43.4755 38.3338 42.9257 37.5818 42.1524C36.8298 41.3721 36.4574 40.386 36.4645 39.1942C36.4574 38.1868 36.7305 37.3143 37.2839 36.5765C37.8443 35.8316 38.6211 35.257 39.6143 34.8526C40.6145 34.4412 41.7673 34.2354 43.0726 34.2354C44.988 34.2354 46.4955 34.6433 47.5951 35.4592C48.7018 36.275 49.3864 37.3781 49.6488 38.7686Z" fill="black"/>
</svg>
